<svg width="40" height="40" viewBox="0 0 40 40" fill="none" xmlns="http://www.w3.org/2000/svg">
<g clip-path="url(#clip0_9_864)">
<path d="M15 31.6667C6.66667 34.1667 6.66667 27.5 3.33334 26.6667M26.6667 36.6667V30.2167C26.7292 29.4219 26.6218 28.623 26.3517 27.873C26.0816 27.123 25.6549 26.439 25.1 25.8667C30.3333 25.2833 35.8333 23.3 35.8333 14.2C35.8329 11.873 34.9378 9.63533 33.3333 7.95C34.0931 5.91417 34.0394 3.66391 33.1833 1.66666C33.1833 1.66666 31.2167 1.08333 26.6667 4.13333C22.8467 3.09803 18.82 3.09803 15 4.13333C10.45 1.08333 8.48334 1.66666 8.48334 1.66666C7.6273 3.66391 7.57358 5.91417 8.33334 7.95C6.71688 9.64783 5.82087 11.9058 5.83334 14.25C5.83334 23.2833 11.3333 25.2667 16.5667 25.9167C16.0183 26.4833 15.5954 27.159 15.3255 27.8999C15.0556 28.6407 14.9447 29.4301 15 30.2167V36.6667" stroke="#1E1E1E" stroke-width="4" stroke-linecap="round" stroke-linejoin="round"/>
</g>
<defs>
<clipPath id="clip0_9_864">
<rect width="40" height="40" fill="white"/>
</clipPath>
</defs>
</svg>
