<svg width="40" height="40" viewBox="0 0 40 40" fill="none" xmlns="http://www.w3.org/2000/svg">
<path d="M6.66666 33.3333C5.74999 33.3333 4.96527 33.0069 4.31249 32.3542C3.65972 31.7014 3.33333 30.9167 3.33333 30V10C3.33333 9.08333 3.65972 8.29861 4.31249 7.64583C4.96527 6.99305 5.74999 6.66666 6.66666 6.66666H33.3333C34.25 6.66666 35.0347 6.99305 35.6875 7.64583C36.3403 8.29861 36.6667 9.08333 36.6667 10V30C36.6667 30.9167 36.3403 31.7014 35.6875 32.3542C35.0347 33.0069 34.25 33.3333 33.3333 33.3333H6.66666ZM20 21.6667L6.66666 13.3333V30H33.3333V13.3333L20 21.6667ZM20 18.3333L33.3333 10H6.66666L20 18.3333ZM6.66666 13.3333V10V30V13.3333Z" fill="#1D1B20"/>
</svg>
